# xmcd CD database file
#
# Track frame offsets:
#	187
#	20912
#	44145
#	64832
#
# Disc length: 1171 seconds
#
# Revision: 0
# Processed by: cddbd v1.5.1PL0 Copyright (c) Steve Scherf et al.
# Submitted via: CDex 1.51
#
DISCID=3a049104
DTITLE=恋愛信号 - サヨナラ
DYEAR=1999
DGENRE=J-POP
TTITLE0=サヨナラ
TTITLE1=世界の終わりに-1999-
TTITLE2=サヨナラ(inst)
TTITLE3=世界の終わりに-1999-(inst)
EXTD=YEAR: 1999
EXTT0=
EXTT1=
EXTT2=
EXTT3=
PLAYORDER=
